<svg width="24" height="24" viewBox="0 0 24 24" fill="none" xmlns="http://www.w3.org/2000/svg">
<path d="M8.41781 3.25C8.69781 2.66 9.30181 2.25 9.99981 2.25H13.9998C14.6978 2.25 15.3008 2.66 15.5818 3.25C16.2648 3.256 16.7978 3.287 17.2738 3.473C17.842 3.69527 18.3362 4.07301 18.6998 4.563C19.0668 5.057 19.2398 5.69 19.4758 6.561L19.5128 6.697L19.5148 6.704L20.3888 10.028L20.4008 10.011C20.4428 10.0563 20.4831 10.104 20.5218 10.154C21.4228 11.308 20.9938 13.024 20.1358 16.455C20.0585 16.7677 19.9851 17.0587 19.9158 17.328L17.4388 14.355L19.2688 11.67L18.7638 9.748L16.4398 13.157L12.9758 9H14.3158C16.2088 9 17.5958 9 18.6138 9.177L18.0648 7.089C17.7748 6.025 17.6718 5.694 17.4948 5.457C17.2993 5.19326 17.0335 4.98984 16.7278 4.87C16.5078 4.784 16.2418 4.759 15.5798 4.752C15.4377 5.05066 15.2138 5.30293 14.9342 5.47956C14.6545 5.6562 14.3306 5.74996 13.9998 5.75H9.99981C9.66906 5.74996 9.34508 5.6562 9.06544 5.47956C8.7858 5.30293 8.56194 5.05066 8.41981 4.752C7.75781 4.759 7.49181 4.784 7.27181 4.87C6.96578 4.98968 6.69962 5.19311 6.50381 5.457C6.32781 5.694 6.22481 6.025 5.93381 7.089L5.38581 9.177C6.40381 9 7.79081 9 9.68481 9H11.0238L7.55981 13.157L5.23581 9.748L4.72981 11.67L6.55981 14.355L4.08281 17.328C4.01348 17.0587 3.94015 16.7677 3.86281 16.455C3.00481 13.024 2.57581 11.308 3.47681 10.154C3.51615 10.104 3.55648 10.0563 3.59781 10.011L3.60981 10.028L4.48381 6.704L4.48581 6.697L4.52281 6.561C4.75981 5.69 4.93281 5.056 5.29881 4.562C5.66254 4.07238 6.15671 3.695 6.72481 3.473C7.20081 3.287 7.73281 3.256 8.41681 3.251" fill="#B10000"/>
<path d="M4.60205 19.0501C4.83505 19.6431 5.10205 20.0571 5.49605 20.3651C6.31005 21.0001 7.43505 21.0001 9.68505 21.0001H11.0921L7.44005 15.6441L4.60205 19.0501ZM12.9081 21.0001H14.3151C16.5651 21.0001 17.6901 21.0001 18.5041 20.3651C18.8981 20.0571 19.1651 19.6431 19.3981 19.0491L16.5601 15.6441L12.9081 21.0001ZM12.0001 19.6691L8.43905 14.4451L12.0001 10.1721L15.5611 14.4451L12.0001 19.6691Z" fill="#B10000"/>
</svg>
